<?xml version="1.0" standalone="no"?>
<!DOCTYPE svg PUBLIC "-//W3C//DTD SVG 20010904//EN"
 "http://www.w3.org/TR/2001/REC-SVG-20010904/DTD/svg10.dtd">
<svg version="1.0" xmlns="http://www.w3.org/2000/svg"
 width="1109.000000pt" height="86.000000pt" viewBox="0 0 1109.000000 86.000000"
 preserveAspectRatio="xMidYMid meet">
<metadata>
Created by potrace 1.16, written by Peter Selinger 2001-2019
</metadata>
<g transform="translate(0.000000,86.000000) scale(0.100000,-0.100000)"
fill="#e4002b" stroke="none">
<path d="M8412 835 c-7 -14 -12 -39 -12 -55 0 -16 -4 -32 -10 -35 -5 -3 -10
-17 -10 -30 0 -20 -6 -24 -52 -30 -63 -9 -108 -26 -126 -48 -11 -13 -17 -14
-33 -4 -27 17 -53 -2 -57 -41 -2 -19 -11 -36 -22 -42 -36 -19 -95 -170 -84
-214 8 -34 49 -66 85 -66 71 0 162 156 144 247 -5 21 -9 44 -11 51 -1 7 9 12
25 12 15 0 31 4 37 9 17 16 64 22 64 9 0 -26 -28 -114 -45 -144 -36 -61 12
-118 69 -81 20 14 23 23 22 77 -1 44 4 70 16 91 10 17 16 34 13 39 -3 5 4 19
16 31 19 19 29 21 83 16 34 -3 68 -8 76 -12 9 -3 24 1 35 10 20 15 19 15 -8
36 -26 20 -27 23 -13 44 15 22 16 48 3 61 -4 4 -7 15 -7 25 0 10 -5 30 -12 44
-9 20 -18 25 -46 25 -30 0 -34 -2 -29 -22 4 -13 13 -51 21 -85 l14 -63 -24 0
c-13 0 -24 5 -24 10 0 6 -3 9 -7 9 -35 -6 -45 2 -39 29 3 15 8 39 11 54 2 15
9 37 15 48 10 18 8 20 -28 20 -32 0 -41 -5 -50 -25z m-269 -428 c-28 -56 -60
-62 -49 -10 5 20 16 33 34 39 15 6 28 10 30 8 2 -1 -5 -18 -15 -37z"/>
<path d="M10442 813 c-5 -10 -12 -63 -16 -118 -3 -55 -9 -126 -12 -157 -9 -81
2 -126 32 -140 20 -9 28 -8 40 4 13 13 14 22 5 49 -21 67 -2 161 24 119 3 -5
19 -10 36 -10 35 0 37 -14 9 -90 -23 -64 -30 -144 -12 -162 17 -17 60 5 66 34
2 13 9 46 16 73 6 28 15 69 19 93 4 24 12 47 17 52 5 5 43 12 84 15 90 7 98 9
180 47 72 33 83 44 69 70 -12 23 -45 23 -53 2 -4 -9 -9 -14 -12 -11 -3 3 -24
-1 -46 -9 -22 -7 -75 -17 -119 -20 -88 -8 -94 -2 -64 56 12 23 24 30 59 35 57
9 103 -2 117 -26 15 -29 89 -13 89 20 0 50 -63 78 -196 88 l-81 5 -35 -35
c-26 -26 -37 -47 -43 -82 -10 -73 -10 -73 -64 -62 -47 10 -48 11 -45 46 2 20
6 49 9 65 9 51 -51 91 -73 49z"/>
<path d="M5204 745 c-15 -23 -15 -26 9 -54 27 -33 48 -144 30 -162 -5 -5 -26
-11 -46 -12 -27 -3 -45 -12 -65 -35 -27 -30 -30 -31 -68 -20 -51 15 -49 13
-30 43 12 19 25 25 51 25 69 0 81 77 14 92 -46 10 -83 -6 -112 -50 -13 -21
-40 -53 -60 -73 -21 -21 -37 -47 -37 -58 0 -23 52 -61 84 -61 14 0 17 -5 12
-22 -4 -13 -9 -48 -13 -78 -4 -45 -2 -59 15 -80 18 -22 23 -23 58 -15 37 10
46 20 88 99 9 16 16 51 16 78 0 32 4 48 13 48 7 0 30 9 52 20 22 11 41 20 42
20 9 0 1 -133 -8 -154 -23 -49 36 -79 65 -34 9 15 15 53 15 110 1 48 4 93 6
100 7 17 77 48 108 48 13 0 27 3 31 7 3 4 16 8 28 10 11 2 41 12 66 23 24 11
57 20 71 20 26 0 51 16 51 32 0 13 -48 9 -194 -17 -77 -14 -146 -25 -152 -25
-17 0 -28 36 -29 96 -1 66 -25 104 -65 104 -20 0 -35 -8 -46 -25z m-134 -399
c0 -13 -10 -31 -21 -42 l-22 -19 7 40 c5 22 10 43 13 48 8 13 23 -4 23 -27z"/>
<path d="M1384 735 c-4 -8 -3 -27 1 -43 14 -50 15 -182 2 -183 -7 -1 -19 -2
-27 -3 -8 -2 -22 -3 -31 -4 -28 -3 -59 -41 -59 -72 0 -17 6 -30 13 -31 34 -3
64 5 83 22 11 11 24 16 27 12 11 -10 8 -78 -3 -109 -16 -40 -4 -64 30 -64 40
0 50 23 50 119 0 46 5 83 11 86 6 4 44 9 86 11 69 4 75 3 68 -13 -35 -82 -44
-185 -19 -221 38 -55 155 -10 234 89 65 82 50 138 -49 178 -22 10 -31 20 -31
37 0 23 -25 44 -54 44 -8 0 -27 -10 -43 -23 -20 -17 -43 -24 -83 -26 -30 -1
-70 -5 -87 -7 -18 -2 -33 -1 -34 4 -1 4 -2 48 -3 97 -1 50 -5 96 -9 103 -11
17 -66 15 -73 -3z m387 -303 c44 -17 44 -41 2 -84 -42 -43 -68 -55 -88 -38
-10 8 -11 19 -5 38 5 15 11 44 15 65 6 40 15 42 76 19z"/>
<path d="M3182 720 c-21 -27 -22 -31 -8 -58 17 -33 23 -111 12 -160 l-8 -33
-35 21 c-30 18 -38 19 -61 8 -40 -20 -40 -52 2 -98 20 -22 36 -48 36 -58 0
-27 20 -42 55 -42 23 0 34 7 48 31 9 17 17 39 17 50 0 10 17 35 37 54 45 42
69 33 59 -25 -3 -19 -8 -53 -11 -75 -3 -22 -8 -46 -11 -53 -7 -23 15 -52 41
-52 20 0 34 14 71 72 56 89 86 119 122 121 l27 2 0 -99 c0 -93 1 -100 23 -109
32 -15 72 24 72 70 0 38 16 76 29 69 5 -3 11 -23 15 -43 7 -44 39 -84 87 -108
46 -24 126 -14 212 27 91 44 92 93 0 57 -33 -13 -55 -18 -105 -26 -48 -7 -79
12 -105 66 -24 47 -27 43 74 96 103 53 135 115 82 158 -19 16 -34 18 -77 14
-60 -6 -70 -13 -124 -80 -21 -27 -38 -47 -38 -44 0 3 -16 1 -36 -3 -31 -7 -36
-6 -44 15 -21 55 -93 44 -180 -26 -43 -36 -49 -28 -51 76 -2 68 -5 82 -25 102
-30 29 -55 29 -83 -1 -19 -20 -21 -28 -11 -46 9 -17 9 -29 -1 -51 -6 -16 -14
-27 -18 -23 -3 3 -6 50 -6 104 0 87 -2 101 -20 114 -28 21 -37 19 -63 -14z"/>
<path d="M128 733 c-22 -6 -21 0 -23 -158 0 -71 -4 -149 -9 -171 -8 -39 -6
-43 18 -59 41 -27 47 -21 90 77 9 20 16 40 16 45 0 6 8 18 19 27 17 15 19 15
25 1 10 -28 7 -100 -6 -113 -9 -9 -9 -18 1 -38 10 -24 16 -26 51 -21 27 3 51
-1 79 -15 27 -13 50 -18 68 -13 29 6 74 40 87 65 4 8 13 26 21 39 11 20 11 31
0 67 -11 37 -11 44 3 49 8 3 16 4 18 2 2 -1 10 -38 19 -82 22 -111 36 -168 48
-183 22 -28 107 -1 107 34 0 21 47 41 62 26 15 -15 72 -16 98 -2 10 5 35 40
56 77 33 60 37 75 42 160 5 101 -3 123 -44 123 -12 0 -29 -9 -37 -20 -12 -17
-12 -27 -2 -57 7 -20 11 -57 8 -82 -5 -49 -41 -133 -59 -138 -6 -2 -18 20 -26
49 -11 42 -20 55 -41 62 -37 13 -67 -15 -67 -63 -1 -37 -28 -81 -51 -81 -7 0
-10 3 -7 6 3 3 0 31 -8 62 -7 31 -13 69 -14 85 0 15 -4 27 -10 27 -5 0 -10 11
-10 25 0 30 -32 65 -60 65 -30 0 -90 -27 -90 -41 0 -7 -9 -9 -27 -4 -61 16
-90 16 -103 1 -15 -19 -40 -21 -40 -5 0 36 -80 51 -112 22 -15 -13 -21 -14
-27 -4 -9 14 -3 61 11 78 14 18 -29 85 -52 82 -3 -1 -13 -3 -22 -6z m344 -273
c21 -47 11 -90 -21 -90 -32 0 -50 67 -29 108 17 32 31 27 50 -18z"/>
<path d="M7070 701 c-13 -25 0 -58 34 -90 19 -18 29 -21 38 -13 14 11 53 16
106 14 l33 -2 -29 -42 c-15 -24 -36 -63 -47 -88 -10 -25 -25 -53 -33 -62 -13
-16 -12 -22 9 -53 47 -68 118 -56 206 34 24 24 46 41 50 37 4 -3 1 -12 -5 -18
-27 -27 -1 -98 36 -98 20 0 62 47 62 69 0 24 15 57 36 81 46 51 64 74 64 80 0
4 7 7 16 7 14 0 16 -14 14 -96 -1 -53 -2 -101 -1 -108 2 -22 35 -33 61 -20 24
12 24 15 25 155 1 93 -2 148 -10 158 -6 9 -27 18 -46 20 -33 5 -40 1 -105 -69
l-69 -73 -47 69 c-27 38 -48 72 -48 77 0 14 -46 20 -81 9 -66 -21 -149 -7
-172 29 -13 20 -85 15 -97 -7z m270 -221 c0 -31 -6 -43 -29 -59 -36 -26 -41
-26 -41 0 0 13 -4 18 -12 13 -7 -4 -1 8 12 27 55 80 70 84 70 19z"/>
<path d="M2102 687 l-21 -22 21 -45 c23 -52 32 -214 15 -280 -12 -45 1 -70 38
-70 28 0 36 10 65 83 34 87 128 159 147 112 6 -17 -23 -55 -42 -55 -18 0 -75
-61 -82 -88 -11 -43 16 -77 64 -80 48 -4 73 17 102 84 22 48 25 51 71 56 l35
3 1 -61 c1 -77 19 -118 65 -143 38 -22 84 -28 93 -12 3 4 18 11 33 14 16 4 39
15 53 26 23 19 24 21 8 37 -15 16 -19 16 -49 1 -37 -17 -71 -14 -105 11 -28
21 -35 72 -16 123 12 30 25 42 83 70 38 18 76 43 84 56 15 22 14 25 -10 49
-22 22 -32 25 -68 20 -23 -3 -46 -5 -50 -5 -11 -1 -77 -71 -77 -81 0 -5 -15
-14 -32 -21 -63 -25 -89 -17 -96 26 -6 32 -31 53 -72 60 -41 7 -68 -6 -132
-64 l-28 -25 -1 50 c0 27 -2 58 -5 69 -2 11 -5 34 -7 52 -3 33 -31 73 -52 73
-6 0 -21 -10 -33 -23z"/>
<path d="M4332 678 c-18 -18 -15 -46 9 -79 11 -16 18 -32 15 -37 -2 -4 -6 -41
-7 -82 -1 -41 -9 -94 -18 -118 -14 -38 -14 -46 0 -70 22 -40 54 -40 78 -1 14
22 22 28 25 18 2 -8 7 -22 10 -31 3 -9 23 -22 45 -28 34 -9 45 -8 65 6 14 8
28 24 31 34 3 11 15 22 26 25 10 4 19 14 19 23 0 26 15 1 29 -45 12 -45 48
-73 93 -73 22 0 136 64 150 84 27 40 -13 50 -69 19 -76 -43 -125 -6 -83 63 12
19 24 33 27 30 3 -2 21 12 40 32 30 31 34 41 29 70 -7 43 -6 43 -53 49 -49 6
-80 -17 -102 -78 -9 -24 -21 -44 -26 -44 -5 0 -16 24 -24 53 -8 30 -27 67 -43
84 -33 36 -59 33 -125 -12 -48 -33 -53 -28 -41 44 5 32 4 54 -4 63 -13 16 -80
17 -96 1z m222 -174 c3 -9 6 -31 6 -49 0 -29 -4 -35 -36 -45 -19 -7 -48 -25
-65 -41 l-29 -28 6 37 c15 91 97 180 118 126z"/>
<path d="M6846 648 l-35 -43 -43 21 c-68 34 -95 30 -139 -16 -35 -37 -66 -57
-41 -27 16 18 -26 77 -54 77 -27 0 -74 -36 -74 -57 0 -9 8 -25 17 -35 11 -12
17 -40 19 -84 4 -85 0 -96 -33 -81 -21 9 -32 7 -69 -12 -24 -13 -44 -28 -44
-32 0 -10 -54 -39 -82 -44 -28 -6 -75 29 -80 60 -3 14 -2 25 1 26 29 3 44 12
80 47 23 22 41 45 41 52 0 7 18 30 40 51 22 22 40 43 40 47 0 16 -41 52 -60
52 -32 0 -120 -21 -148 -36 -15 -8 -39 -14 -54 -14 -38 0 -61 -26 -109 -124
-55 -114 -62 -110 -86 44 -3 19 -11 38 -17 42 -17 12 -61 9 -74 -4 -18 -18
-14 -64 7 -79 12 -10 24 -41 35 -98 24 -125 55 -149 114 -87 18 19 32 37 32
41 0 8 36 83 53 110 39 63 38 63 31 5 -9 -81 -6 -110 18 -148 56 -90 191 -86
302 11 l38 34 24 -24 c13 -12 30 -23 39 -23 20 0 55 35 56 58 4 82 9 97 43
147 38 54 41 56 84 41 12 -4 22 -15 22 -24 0 -9 14 -29 32 -43 31 -26 32 -28
19 -66 -20 -59 -12 -94 28 -120 75 -51 156 -7 175 95 5 31 -12 75 -37 93 -4 3
-1 11 7 18 12 10 20 10 42 -1 45 -22 69 -63 69 -119 0 -37 5 -53 17 -60 40
-23 75 32 58 90 -4 14 -13 45 -19 69 -11 40 -61 101 -85 103 -21 2 -41 -3 -56
-15 -8 -6 -28 -13 -45 -15 -16 -2 -31 -7 -33 -12 -4 -9 -42 -13 -42 -4 0 2 5
15 11 29 8 17 25 28 56 35 30 8 47 19 55 36 17 37 -4 55 -62 55 -45 0 -51 -3
-84 -42z m51 -213 c33 -23 7 -84 -30 -69 -20 7 -28 30 -21 60 7 28 21 30 51 9z"/>
<path d="M10187 630 c-28 -22 -56 -76 -59 -114 -3 -31 -4 -31 -63 -6 -26 11
-61 21 -78 21 -31 2 -31 2 -4 6 52 8 60 75 11 93 -31 12 -55 2 -88 -36 -24
-30 -29 -31 -65 -23 -75 17 -158 -7 -188 -54 -5 -7 -19 -21 -32 -32 l-23 -20
2 20 c9 77 -24 125 -83 125 -46 0 -61 -20 -58 -80 1 -34 -5 -63 -19 -90 -33
-64 -44 -54 -55 55 -9 89 -37 104 -114 60 -23 -14 -56 -25 -73 -25 -31 0 -68
-16 -80 -34 -4 -6 -8 -24 -8 -41 -1 -16 -12 -61 -25 -100 -22 -64 -23 -71 -8
-87 25 -28 73 -22 113 13 19 17 39 34 45 37 5 4 25 24 42 45 l33 38 -5 -41
c-6 -49 7 -77 43 -91 21 -8 31 -6 56 12 17 13 34 27 38 33 3 6 23 34 43 61
l36 50 -2 -40 c-3 -63 0 -74 21 -85 32 -17 57 -3 81 48 25 52 114 146 128 137
5 -3 12 -1 16 5 4 6 10 8 15 5 5 -3 1 -19 -8 -36 -17 -29 -16 -31 7 -50 17
-14 35 -19 57 -16 l32 5 4 -66 c5 -72 27 -102 77 -102 39 1 92 33 110 68 9 16
25 47 36 68 l19 38 11 -26 c19 -47 35 -58 83 -58 33 0 54 7 79 26 55 42 34 96
-26 62 -14 -9 -32 -13 -38 -11 -27 10 -11 43 47 99 67 64 74 88 35 124 -33 31
-86 35 -118 10z m-183 -226 c6 -16 -18 -84 -31 -85 -4 0 -16 -2 -25 -4 -14 -2
-16 4 -13 40 2 24 6 49 10 54 10 17 52 13 59 -5z"/>
<path d="M9042 596 c-22 -23 -43 -54 -47 -67 -4 -13 -11 -26 -15 -29 -3 -3
-17 -26 -29 -53 -13 -26 -27 -44 -32 -41 -6 3 -25 39 -44 79 -47 103 -92 127
-129 69 -15 -22 -14 -25 15 -56 17 -18 45 -62 62 -98 16 -36 37 -73 45 -82 13
-16 13 -22 -4 -59 -10 -23 -35 -66 -56 -96 -41 -58 -47 -83 -24 -103 34 -27
59 -8 104 80 24 47 44 93 45 102 1 10 5 18 8 18 4 0 13 16 20 35 7 19 16 35
20 35 3 0 12 20 19 45 7 25 17 48 22 51 5 3 13 16 19 27 16 37 33 60 73 97 33
31 38 41 32 63 -11 44 -54 37 -104 -17z"/>
</g>
</svg>
